<mxfile host="Electron" modified="2024-02-23T10:16:45.393Z" agent="Mozilla/5.0 (Windows NT 10.0; Win64; x64) AppleWebKit/537.36 (KHTML, like Gecko) draw.io/22.0.3 Chrome/114.0.5735.289 Electron/25.8.4 Safari/537.36" etag="GTt_-dIvoaF1MqPIO1e4" version="22.0.3" type="device">
  <diagram name="Page-1" id="JaS-mlAbmv6u3xqrk0BL">
    <mxGraphModel dx="2058" dy="1220" grid="1" gridSize="10" guides="1" tooltips="1" connect="1" arrows="1" fold="1" page="0" pageScale="1" pageWidth="850" pageHeight="1100" math="0" shadow="0">
      <root>
        <mxCell id="0" />
        <mxCell id="1" parent="0" />
        <mxCell id="1FOk7flxC6Cu8_AXTQjD-1" value="" style="rounded=0;whiteSpace=wrap;html=1;fillColor=none;fontStyle=4" parent="1" vertex="1">
          <mxGeometry x="39.5" y="60" width="761" height="620" as="geometry" />
        </mxCell>
        <mxCell id="1FOk7flxC6Cu8_AXTQjD-4" value="&lt;font style=&quot;font-size: 35px;&quot;&gt;leBaie&lt;/font&gt;" style="text;html=1;strokeColor=none;fillColor=none;align=center;verticalAlign=middle;whiteSpace=wrap;rounded=0;fontStyle=0" parent="1" vertex="1">
          <mxGeometry x="70" y="80" width="60" height="10" as="geometry" />
        </mxCell>
        <mxCell id="1FOk7flxC6Cu8_AXTQjD-5" value="&lt;span&gt;Home &lt;/span&gt;" style="text;html=1;strokeColor=none;fillColor=none;align=center;verticalAlign=middle;whiteSpace=wrap;rounded=0;fontStyle=4" parent="1" vertex="1">
          <mxGeometry x="138" y="200" width="60" height="30" as="geometry" />
        </mxCell>
        <mxCell id="1FOk7flxC6Cu8_AXTQjD-6" value="Electronics " style="text;html=1;strokeColor=none;fillColor=none;align=center;verticalAlign=middle;whiteSpace=wrap;rounded=0;fontStyle=4" parent="1" vertex="1">
          <mxGeometry x="459" y="200" width="60" height="30" as="geometry" />
        </mxCell>
        <mxCell id="1FOk7flxC6Cu8_AXTQjD-7" value="Clothing" style="text;html=1;strokeColor=none;fillColor=none;align=center;verticalAlign=middle;whiteSpace=wrap;rounded=0;fontStyle=4" parent="1" vertex="1">
          <mxGeometry x="354" y="200" width="60" height="30" as="geometry" />
        </mxCell>
        <mxCell id="1FOk7flxC6Cu8_AXTQjD-8" value="Vehicles" style="text;html=1;strokeColor=none;fillColor=none;align=center;verticalAlign=middle;whiteSpace=wrap;rounded=0;fontStyle=4" parent="1" vertex="1">
          <mxGeometry x="629" y="200" width="60" height="30" as="geometry" />
        </mxCell>
        <mxCell id="1FOk7flxC6Cu8_AXTQjD-9" value="About us" style="text;html=1;strokeColor=none;fillColor=none;align=center;verticalAlign=middle;whiteSpace=wrap;rounded=0;fontStyle=4" parent="1" vertex="1">
          <mxGeometry x="254" y="200" width="60" height="30" as="geometry" />
        </mxCell>
        <mxCell id="1FOk7flxC6Cu8_AXTQjD-10" value="Games" style="text;html=1;strokeColor=none;fillColor=none;align=center;verticalAlign=middle;whiteSpace=wrap;rounded=0;fontStyle=4" parent="1" vertex="1">
          <mxGeometry x="549" y="200" width="60" height="30" as="geometry" />
        </mxCell>
        <mxCell id="1FOk7flxC6Cu8_AXTQjD-11" value="&lt;span&gt;contact us&lt;br&gt;&lt;/span&gt;" style="text;html=1;strokeColor=none;fillColor=none;align=center;verticalAlign=middle;whiteSpace=wrap;rounded=0;fontStyle=4" parent="1" vertex="1">
          <mxGeometry x="70" y="110" width="60" height="30" as="geometry" />
        </mxCell>
        <mxCell id="1FOk7flxC6Cu8_AXTQjD-13" value="&lt;font style=&quot;font-size: 25px;&quot;&gt;&amp;nbsp;Basket&lt;/font&gt;" style="text;html=1;strokeColor=none;fillColor=none;align=center;verticalAlign=middle;whiteSpace=wrap;rounded=0;" parent="1" vertex="1">
          <mxGeometry x="50" y="280" width="100" height="30" as="geometry" />
        </mxCell>
        <mxCell id="1FOk7flxC6Cu8_AXTQjD-19" value="Navigation Bar containing internal hyperlinks" style="text;html=1;strokeColor=none;fillColor=none;align=center;verticalAlign=middle;whiteSpace=wrap;rounded=0;" parent="1" vertex="1">
          <mxGeometry x="-190" y="310" width="60" height="30" as="geometry" />
        </mxCell>
        <mxCell id="1FOk7flxC6Cu8_AXTQjD-20" value="" style="endArrow=classic;html=1;rounded=0;" parent="1" edge="1">
          <mxGeometry width="50" height="50" relative="1" as="geometry">
            <mxPoint x="-110" y="330" as="sourcePoint" />
            <mxPoint x="110" y="240" as="targetPoint" />
          </mxGeometry>
        </mxCell>
        <mxCell id="1FOk7flxC6Cu8_AXTQjD-36" value="" style="endArrow=classic;html=1;rounded=0;entryX=0;entryY=0.5;entryDx=0;entryDy=0;" parent="1" target="1FOk7flxC6Cu8_AXTQjD-11" edge="1">
          <mxGeometry width="50" height="50" relative="1" as="geometry">
            <mxPoint x="-50" y="170" as="sourcePoint" />
            <mxPoint y="120" as="targetPoint" />
          </mxGeometry>
        </mxCell>
        <mxCell id="1FOk7flxC6Cu8_AXTQjD-37" value="internal hyperlink to contact us page&amp;nbsp;" style="text;html=1;strokeColor=none;fillColor=none;align=center;verticalAlign=middle;whiteSpace=wrap;rounded=0;" parent="1" vertex="1">
          <mxGeometry x="-110" y="170" width="60" height="30" as="geometry" />
        </mxCell>
        <mxCell id="3y53a9IgMEsXcIKsQaVZ-31" value="" style="whiteSpace=wrap;html=1;aspect=fixed;" parent="1" vertex="1">
          <mxGeometry x="644" y="70" width="30" height="30" as="geometry" />
        </mxCell>
        <mxCell id="3y53a9IgMEsXcIKsQaVZ-32" value="" style="whiteSpace=wrap;html=1;aspect=fixed;" parent="1" vertex="1">
          <mxGeometry x="690" y="70" width="30" height="30" as="geometry" />
        </mxCell>
        <mxCell id="3y53a9IgMEsXcIKsQaVZ-33" value="" style="endArrow=classic;html=1;rounded=0;entryX=0.75;entryY=1;entryDx=0;entryDy=0;" parent="1" target="3y53a9IgMEsXcIKsQaVZ-31" edge="1">
          <mxGeometry width="50" height="50" relative="1" as="geometry">
            <mxPoint x="980" y="300" as="sourcePoint" />
            <mxPoint x="710" y="110" as="targetPoint" />
          </mxGeometry>
        </mxCell>
        <mxCell id="3y53a9IgMEsXcIKsQaVZ-34" value="onclick image that takes you to &quot;profile&quot; page" style="rounded=0;whiteSpace=wrap;html=1;fillColor=none;" parent="1" vertex="1">
          <mxGeometry x="1000" y="300" width="120" height="40" as="geometry" />
        </mxCell>
        <mxCell id="3y53a9IgMEsXcIKsQaVZ-35" value="" style="endArrow=classic;html=1;rounded=0;entryX=0.75;entryY=1;entryDx=0;entryDy=0;" parent="1" target="3y53a9IgMEsXcIKsQaVZ-32" edge="1">
          <mxGeometry width="50" height="50" relative="1" as="geometry">
            <mxPoint x="990" y="240" as="sourcePoint" />
            <mxPoint x="760" y="110" as="targetPoint" />
          </mxGeometry>
        </mxCell>
        <mxCell id="3y53a9IgMEsXcIKsQaVZ-36" value="onclick image that takes you to &quot;basket&quot; page" style="rounded=0;whiteSpace=wrap;html=1;fillColor=none;" parent="1" vertex="1">
          <mxGeometry x="1000" y="210" width="120" height="50" as="geometry" />
        </mxCell>
        <mxCell id="3y53a9IgMEsXcIKsQaVZ-37" value="&lt;u&gt;List a Product&lt;/u&gt;" style="text;html=1;strokeColor=none;fillColor=none;align=center;verticalAlign=middle;whiteSpace=wrap;rounded=0;" parent="1" vertex="1">
          <mxGeometry x="569" y="70" width="60" height="30" as="geometry" />
        </mxCell>
        <mxCell id="3y53a9IgMEsXcIKsQaVZ-38" value="internal hyperlink " style="text;html=1;fillColor=none;align=center;verticalAlign=middle;whiteSpace=wrap;rounded=0;" parent="1" vertex="1">
          <mxGeometry x="399" y="-30" width="60" height="30" as="geometry" />
        </mxCell>
        <mxCell id="3y53a9IgMEsXcIKsQaVZ-39" value="" style="endArrow=classic;html=1;rounded=0;entryX=0.25;entryY=0;entryDx=0;entryDy=0;" parent="1" target="3y53a9IgMEsXcIKsQaVZ-37" edge="1">
          <mxGeometry width="50" height="50" relative="1" as="geometry">
            <mxPoint x="469" y="-10" as="sourcePoint" />
            <mxPoint x="579" y="50" as="targetPoint" />
          </mxGeometry>
        </mxCell>
        <mxCell id="MZgjwIfG0SvplMThphlv-2" value="" style="whiteSpace=wrap;html=1;aspect=fixed;" vertex="1" parent="1">
          <mxGeometry x="-150" y="460" width="115" height="115" as="geometry" />
        </mxCell>
        <mxCell id="MZgjwIfG0SvplMThphlv-3" value="message displayed when sql select returns no results (basket is empty)" style="text;html=1;strokeColor=none;fillColor=none;align=center;verticalAlign=middle;whiteSpace=wrap;rounded=0;" vertex="1" parent="1">
          <mxGeometry x="-122" y="500" width="60" height="30" as="geometry" />
        </mxCell>
        <mxCell id="MZgjwIfG0SvplMThphlv-4" value="your basket is empty, sorry!" style="text;html=1;strokeColor=none;fillColor=none;align=center;verticalAlign=middle;whiteSpace=wrap;rounded=0;" vertex="1" parent="1">
          <mxGeometry x="93" y="330" width="150" height="30" as="geometry" />
        </mxCell>
        <mxCell id="MZgjwIfG0SvplMThphlv-5" value="" style="endArrow=classic;html=1;rounded=0;entryX=0.127;entryY=1.067;entryDx=0;entryDy=0;entryPerimeter=0;" edge="1" parent="1" target="MZgjwIfG0SvplMThphlv-4">
          <mxGeometry width="50" height="50" relative="1" as="geometry">
            <mxPoint x="-40" y="520" as="sourcePoint" />
            <mxPoint x="10" y="470" as="targetPoint" />
          </mxGeometry>
        </mxCell>
      </root>
    </mxGraphModel>
  </diagram>
</mxfile>
